<svg width="426" height="341" viewBox="0 0 426 341" fill="none" xmlns="http://www.w3.org/2000/svg">
<path d="M255.45 0.0599976C163.72 0.0599976 88.99 72.69 85.54 163.57C88.96 96.17 144.69 42.58 212.93 42.58C281.17 42.58 340.49 99.69 340.49 170.14H425.53C425.53 76.21 349.38 0.0599976 255.45 0.0599976Z" fill="#006464"/>
<path d="M212.93 297.7C142.48 297.7 85.3701 240.59 85.3701 170.14H0.330078C0.330078 264.07 76.4801 340.22 170.41 340.22C264.34 340.22 336.87 267.59 340.32 176.71C336.9 244.11 281.17 297.7 212.93 297.7Z" fill="#C85F00"/>
<path d="M340.48 170.14C340.48 99.69 283.37 42.58 212.92 42.58C142.47 42.58 85.3601 99.69 85.3601 170.14H340.48Z" fill="#009B96"/>
<path d="M85.3701 170.14C85.3701 240.59 142.48 297.7 212.93 297.7C283.38 297.7 340.49 240.59 340.49 170.14H85.3701Z" fill="#E1BE00"/>
</svg>
