<svg height="512" viewBox="0 0 64 64" width="512" xmlns="http://www.w3.org/2000/svg"><g id="cash"><path d="m41 20h18v4h-18z" fill="#ff9811"/><path d="m42 24h16v11h-16z" fill="#ffcd00"/><path d="m42 24h16a0 0 0 0 1 0 0 11 11 0 0 1 -11 11h-5a0 0 0 0 1 0 0v-11a0 0 0 0 1 0 0z" fill="#ffda44"/><path d="m41 24h17v1h-17z" fill="#ffcd00"/><path d="m27 35h-22l1-16h20z" fill="#3e3d42"/><path d="m9 22h10v3h-10z" fill="#2488ff"/><path d="m3 35h58v4h-58z" fill="#898890"/><path d="m5 39h54v22h-54z" fill="#e0e0e2"/><circle cx="32" cy="50" fill="#ffda44" r="8"/><path d="m46 35h-15l1-18h13z" fill="#c0ab91"/><path d="m31 35 1-18h13l.168 3.023a14.19 14.19 0 0 1 -14.168 14.977z" fill="#d9ccbc"/><path d="m19 12h2v7h-2z" fill="#acabb1"/><path d="m43 20h-2v-4.5a2.5 2.5 0 0 0 -5 0v4.5h-2v-4.5a4.5 4.5 0 0 1 9 0z" fill="#806749"/><g fill="#a4e276"><path d="m10 27h2v2h-2z"/><path d="m13 27h2v2h-2z"/><path d="m16 27h2v2h-2z"/><path d="m10 30h2v2h-2z"/><path d="m13 30h2v2h-2z"/><path d="m16 30h2v2h-2z"/></g><path d="m36 52a3.009 3.009 0 0 1 -3 3v1h-2v-1a3.009 3.009 0 0 1 -3-3h2a1 1 0 0 0 1 1h2a1 1 0 0 0 0-2h-2a3 3 0 0 1 0-6v-1h2v1a3.009 3.009 0 0 1 3 3h-2a1 1 0 0 0 -1-1h-2a1 1 0 0 0 0 2h2a3.009 3.009 0 0 1 3 3z" fill="#fff"/><path d="m5 39h54v1h-54z" fill="#3e3d42"/><path d="m13 9h14v4h-7-7z" fill="#9bfbff"/><path d="m19 13h2v1h-2z" fill="#787680"/><path d="m46 35h-15l1-18h13z" fill="#d9ccbc"/></g></svg>